<svg xmlns="http://www.w3.org/2000/svg" version="1.1" xmlns:xlink="http://www.w3.org/1999/xlink" xmlns:svgjs="http://svgjs.dev/svgjs" width="2000" height="1500" viewBox="0 0 2000 1500"><rect width="2000" height="1500" fill="#1f2d5a"></rect><g transform="matrix(0.75,0,0,0.75,249.090909090909,492.19838056744754)"><svg viewBox="0 0 396 136" data-background-color="#1f2d5a" preserveAspectRatio="xMidYMid meet" height="686" width="2000" xmlns="http://www.w3.org/2000/svg" xmlns:xlink="http://www.w3.org/1999/xlink"><g id="tight-bounds" transform="matrix(1,0,0,1,0.2400000000000091,0.1458119394113453)"><svg viewBox="0 0 395.52 135.70837612117734" height="135.70837612117734" width="395.52"><g><svg viewBox="0 0 664.1044439102931 227.86340932929656" height="135.70837612117734" width="395.52"><g transform="matrix(1,0,0,1,268.5844439102931,51.97449001680029)"><svg viewBox="0 0 395.52 123.91442929569598" height="123.91442929569598" width="395.52"><g><svg viewBox="0 0 395.52 123.91442929569598" height="123.91442929569598" width="395.52"><g><svg viewBox="0 0 395.52 86.24560434139123" height="86.24560434139123" width="395.52"><g transform="matrix(1,0,0,1,0,0)"><svg width="395.52" viewBox="4.699999809265137 -35.5 202.69000244140625 44.20000076293945" height="86.24560434139123" data-palette-color="#ff0000"><path d="M6.2-35L6.2-35Q6.55-35 6.93-34.85 7.3-34.7 7.55-34.35L7.55-34.35 21.35-13.65 20-13.7 33.85-34.35Q34.4-35.1 35.2-35L35.2-35Q35.8-35 36.23-34.58 36.65-34.15 36.65-33.5L36.65-33.5 36.65-1.5Q36.65-0.9 36.2-0.45 35.75 0 35.1 0L35.1 0Q34.4 0 33.95-0.45 33.5-0.9 33.5-1.5L33.5-1.5 33.5-30.45 34.4-30.35 21.75-11.2Q21.6-10.9 21.3-10.73 21-10.55 20.6-10.6L20.6-10.6Q20.25-10.55 19.93-10.73 19.6-10.9 19.4-11.2L19.4-11.2 6.7-30.55 7.65-31.2 7.65-1.5Q7.65-0.9 7.23-0.45 6.8 0 6.15 0L6.15 0Q5.5 0 5.1-0.45 4.7-0.9 4.7-1.5L4.7-1.5 4.7-33.5Q4.7-34.1 5.13-34.55 5.55-35 6.2-35ZM56.85-31.35L57.75-31.15 45.6-0.95Q45.4-0.45 45.05-0.2 44.7 0.05 44.25 0.05L44.25 0.05Q43.55 0.05 43.2-0.33 42.85-0.7 42.8-1.25L42.8-1.25Q42.75-1.5 42.85-1.85L42.85-1.85 56.05-34.15Q56.3-34.7 56.67-34.93 57.05-35.15 57.55-35.15L57.55-35.15Q58.05-35.15 58.42-34.88 58.8-34.6 59-34.15L59-34.15 72.15-2Q72.25-1.7 72.25-1.4L72.25-1.4Q72.25-0.7 71.8-0.33 71.35 0.05 70.75 0.05L70.75 0.05Q70.25 0.05 69.87-0.23 69.5-0.5 69.3-0.95L69.3-0.95 56.85-31.35ZM65.85-10.1L48.5-10.1 49.75-13.05 65.25-13.05 65.85-10.1ZM111.75 2.8L111.75 2.8Q112.3 2.8 112.7 3.18 113.1 3.55 113.1 4.15L113.1 4.15Q113.1 5 112.22 5.8 111.34 6.6 109.92 7.28 108.5 7.95 106.92 8.33 105.35 8.7 103.95 8.7L103.95 8.7Q101 8.7 99 8.05 97 7.4 95.5 6.55 94 5.7 92.45 5.05 90.9 4.4 88.75 4.4L88.75 4.4Q87.85 4.4 87.17 4.7 86.5 5 85.92 5.28 85.35 5.55 84.7 5.55L84.7 5.55Q84.1 5.55 83.67 5.1 83.25 4.65 83.25 4L83.25 4Q83.25 3.1 84.1 2.75L84.1 2.75 92.7-0.35 97.3-0.2 89.35 2.5 90 1.8Q92.1 1.8 93.75 2.4 95.4 3 96.92 3.83 98.45 4.65 100.15 5.28 101.85 5.9 104.05 5.9L104.05 5.9Q106 5.9 107.27 5.33 108.55 4.75 109.34 4.3L109.34 4.3Q110.09 3.85 110.62 3.33 111.15 2.8 111.75 2.8ZM109.34-17.5L109.34-17.5Q109.34-13.55 108.12-10.28 106.9-7 104.65-4.58 102.4-2.15 99.32-0.83 96.25 0.5 92.6 0.5L92.6 0.5Q88.95 0.5 85.87-0.83 82.8-2.15 80.55-4.58 78.3-7 77.07-10.28 75.85-13.55 75.85-17.5L75.85-17.5Q75.85-21.45 77.07-24.73 78.3-28 80.55-30.43 82.8-32.85 85.87-34.18 88.95-35.5 92.6-35.5L92.6-35.5Q96.25-35.5 99.32-34.18 102.4-32.85 104.65-30.43 106.9-28 108.12-24.73 109.34-21.45 109.34-17.5ZM106.15-17.5L106.15-17.5Q106.15-21.95 104.42-25.33 102.7-28.7 99.65-30.6 96.6-32.5 92.6-32.5L92.6-32.5Q88.65-32.5 85.57-30.6 82.5-28.7 80.77-25.33 79.05-21.95 79.05-17.5L79.05-17.5Q79.05-13.05 80.77-9.68 82.5-6.3 85.57-4.4 88.65-2.5 92.6-2.5L92.6-2.5Q96.6-2.5 99.65-4.4 102.7-6.3 104.42-9.68 106.15-13.05 106.15-17.5ZM141.64-35L141.64-35Q142.34-35 142.74-34.58 143.14-34.15 143.14-33.5L143.14-33.5 143.14-12.8Q143.14-9.1 141.39-6.1 139.64-3.1 136.69-1.33 133.74 0.45 130.04 0.45L130.04 0.45Q126.34 0.45 123.37-1.33 120.39-3.1 118.64-6.1 116.89-9.1 116.89-12.8L116.89-12.8 116.89-33.5Q116.89-34.15 117.32-34.58 117.74-35 118.49-35L118.49-35Q119.09-35 119.54-34.58 119.99-34.15 119.99-33.5L119.99-33.5 119.99-12.8Q119.99-9.9 121.37-7.6 122.74-5.3 125.04-3.93 127.34-2.55 130.04-2.55L130.04-2.55Q132.84-2.55 135.14-3.93 137.44-5.3 138.82-7.6 140.19-9.9 140.19-12.8L140.19-12.8 140.19-33.5Q140.19-34.15 140.59-34.58 140.99-35 141.64-35ZM154.24 0L154.24 0Q153.49 0 153.02-0.45 152.54-0.9 152.54-1.5L152.54-1.5 152.54-33.5Q152.54-34.1 152.99-34.55 153.44-35 154.04-35L154.04-35 167.54-35Q170.39-35 172.64-33.77 174.89-32.55 176.17-30.4 177.44-28.25 177.44-25.55L177.44-25.55Q177.44-23.35 176.64-21.5 175.84-19.65 174.39-18.38 172.94-17.1 171.14-16.5L171.14-16.5 169.39-17.05Q171.24-16.9 172.84-15.88 174.44-14.85 175.42-13.08 176.39-11.3 176.44-8.8L176.44-8.8Q176.49-6.65 176.67-5.45 176.84-4.25 177.19-3.65 177.54-3.05 178.09-2.7L178.09-2.7Q178.59-2.4 178.77-1.85 178.94-1.3 178.64-0.8L178.64-0.8Q178.44-0.4 178.06-0.23 177.69-0.05 177.29-0.05 176.89-0.05 176.49-0.25L176.49-0.25Q175.79-0.65 175.06-1.5 174.34-2.35 173.87-4 173.39-5.65 173.39-8.6L173.39-8.6Q173.39-10.55 172.77-11.8 172.14-13.05 171.17-13.73 170.19-14.4 169.02-14.68 167.84-14.95 166.79-14.95L166.79-14.95 155.14-14.95 155.69-15.65 155.69-1.5Q155.69-0.9 155.29-0.45 154.89 0 154.24 0ZM155.69-17L155.14-17.7 167.69-17.7Q169.39-17.85 170.89-18.82 172.39-19.8 173.31-21.5 174.24-23.2 174.24-25.45L174.24-25.45Q174.24-28.3 172.31-30.18 170.39-32.05 167.29-32.05L167.29-32.05 155.34-32.05 155.69-32.75 155.69-17ZM187.54-35L187.54-35 205.89-35Q206.49-35 206.94-34.58 207.39-34.15 207.39-33.5L207.39-33.5Q207.39-32.85 206.94-32.45 206.49-32.05 205.89-32.05L205.89-32.05 188.69-32.05 189.19-32.9 189.19-18.85 188.64-19.5 203.64-19.5Q204.24-19.5 204.69-19.05 205.14-18.6 205.14-18L205.14-18Q205.14-17.35 204.69-16.95 204.24-16.55 203.64-16.55L203.64-16.55 188.74-16.55 189.19-17.05 189.19-2.65 188.94-2.95 205.89-2.95Q206.49-2.95 206.94-2.5 207.39-2.05 207.39-1.45L207.39-1.45Q207.39-0.8 206.94-0.4 206.49 0 205.89 0L205.89 0 187.54 0Q186.94 0 186.49-0.45 186.04-0.9 186.04-1.5L186.04-1.5 186.04-33.5Q186.04-34.1 186.49-34.55 186.94-35 187.54-35Z" opacity="1" transform="matrix(1,0,0,1,0,0)" fill="#ff0000" class="undefined-text-0" data-fill-palette-color="primary" id="text-0"></path></svg></g></svg></g><g transform="matrix(1,0,0,1,0,106.60612163188951)"><svg viewBox="0 0 232.209792 17.30830766380647" height="17.30830766380647" width="232.209792"><g transform="matrix(1,0,0,1,0,0)"><svg width="232.209792" viewBox="0.30000001192092896 -35.54999923706055 483.6100158691406 36.04999923706055" height="17.30830766380647" data-palette-color="#fff300"><path d="M13.05-34.05L21.2-10.1 25.35-24.5 22.35-34.05 19.5-34.05 19.5-35 35-35 35-34.05 32.05-34.05 39.5-10.4 45.5-34.05 40.45-34.05 40.45-35 50.45-35 50.45-34.05 47.15-34.05 37.95 0.5 33.5 0.5 26.1-22.1 19.6 0.5 15.25 0.5 2.65-34.05 0.3-34.05 0.3-35 16.55-35 16.55-34.05 13.05-34.05ZM72.8-15.45L72.8-15.45 72.8-19.15Q72.8-28.3 71.9-30.7L71.9-30.7Q70.9-33.45 69.05-34.1L69.05-34.1Q68-34.5 66.5-34.5 65-34.5 63.92-34.1 62.85-33.7 62.15-32.7 61.45-31.7 61.02-30.6 60.6-29.5 60.35-27.5L60.35-27.5Q60.05-24.6 60.05-18.95L60.05-18.95 60.05-15.35Q60.05-9.25 60.52-6.68 61-4.1 61.7-3L61.7-3Q63.25-0.55 66.5-0.55L66.5-0.55Q70.45-0.55 71.62-3.88 72.8-7.2 72.8-15.45ZM66.4 0.5Q58.05 0.5 53.92-4.03 49.8-8.55 49.8-17.13 49.8-25.7 54.22-30.63 58.65-35.55 66.75-35.55 74.85-35.55 78.97-30.88 83.1-26.2 83.1-17.6 83.1-9 78.92-4.25 74.75 0.5 66.4 0.5ZM101.55-17.7L101.55-17.7 98.9-17.7 98.9-0.95 102.15-0.95 102.15 0 85.9 0 85.9-0.95 89.15-0.95 89.15-34.05 85.9-34.05 85.9-35 101-35Q107.5-35 110.22-34.33 112.95-33.65 114.05-32.7L114.05-32.7Q116.45-30.75 116.45-26.5 116.45-22.25 114.35-20.43 112.25-18.6 107.95-18.25L107.95-18.25 107.95-18.1Q112-17.55 113.6-15.7 115.2-13.85 115.2-9.5L115.2-9.5 115.2-6.85Q115.2-4.25 115.47-3.35 115.75-2.45 116.65-2.45 117.55-2.45 118.07-3.28 118.6-4.1 119.05-6.75L119.05-6.75 119.9-6.65Q119.35-2.4 117.97-0.95 116.6 0.5 112.5 0.5 108.4 0.5 106.67-1.43 104.95-3.35 104.95-8.65L104.95-8.65 104.95-12.3Q104.95-15.1 104.22-16.4 103.5-17.7 101.55-17.7ZM100.55-34.05L98.9-34.05 98.9-18.65 100.5-18.65Q103.35-18.65 104.72-20.4 106.1-22.15 106.1-26.1L106.1-26.1 106.1-27.55Q106.1-31.5 104.77-32.77 103.45-34.05 100.55-34.05L100.55-34.05ZM121.99-33.9L121.99-35 139.99-35 139.99-33.9 134.69-33.9 134.69-1.1 136.49-1.1Q140.74-1.1 143.27-3.7 145.79-6.3 148.39-11.7L148.39-11.7 149.44-11.7 148.49 0 121.99 0 121.99-1.1 124.94-1.1 124.94-33.9 121.99-33.9ZM186.44-18.1L186.44-18.1Q186.44-7.8 180.64-3.75L180.64-3.75Q175.29 0 165.94 0L165.94 0 151.79 0 151.79-0.95 155.09-0.95 155.09-34.05 151.79-34.05 151.79-35 167.24-35Q176.84-35 181.64-31.08 186.44-27.15 186.44-18.1ZM164.84-34.05L164.84-0.95 166.74-0.95Q171.79-0.95 173.97-4.53 176.14-8.1 176.14-16.5L176.14-16.5 176.14-19.4Q176.14-30.65 171.84-32.95L171.84-32.95Q169.79-34.05 166.04-34.05L166.04-34.05 164.84-34.05ZM222.54-15.45L222.54-15.45 222.54-19.15Q222.54-28.3 221.64-30.7L221.64-30.7Q220.64-33.45 218.79-34.1L218.79-34.1Q217.74-34.5 216.24-34.5 214.74-34.5 213.66-34.1 212.59-33.7 211.89-32.7 211.19-31.7 210.76-30.6 210.34-29.5 210.09-27.5L210.09-27.5Q209.79-24.6 209.79-18.95L209.79-18.95 209.79-15.35Q209.79-9.25 210.26-6.68 210.74-4.1 211.44-3L211.44-3Q212.99-0.55 216.24-0.55L216.24-0.55Q220.19-0.55 221.36-3.88 222.54-7.2 222.54-15.45ZM216.14 0.5Q207.79 0.5 203.66-4.03 199.54-8.55 199.54-17.13 199.54-25.7 203.96-30.63 208.39-35.55 216.49-35.55 224.59-35.55 228.71-30.88 232.84-26.2 232.84-17.6 232.84-9 228.66-4.25 224.49 0.5 216.14 0.5ZM235.93-33.9L235.93-35 261.93-35 262.43-24.6 261.53-24.6Q259.68-30 257.26-31.95 254.83-33.9 250.03-33.9L250.03-33.9 248.63-33.9 248.63-17.65 250.88-17.65Q253.28-17.65 254.88-19.4 256.48-21.15 257.08-24.2L257.08-24.2 257.83-24.2 257.83-9.4 256.98-9.4Q256.18-13.15 254.76-14.75 253.33-16.35 250.88-16.35L250.88-16.35 248.63-16.35 248.63-1.1 254.83-1.1 254.83 0 235.93 0 235.93-1.1 238.88-1.1 238.88-33.9 235.93-33.9ZM274.53-33.9L274.53-35 300.53-35 301.03-24.6 300.13-24.6Q298.28-30 295.85-31.95 293.43-33.9 288.63-33.9L288.63-33.9 287.23-33.9 287.23-17.65 289.48-17.65Q291.88-17.65 293.48-19.4 295.08-21.15 295.68-24.2L295.68-24.2 296.43-24.2 296.43-9.4 295.58-9.4Q294.78-13.15 293.35-14.75 291.93-16.35 289.48-16.35L289.48-16.35 287.23-16.35 287.23-1.1 293.43-1.1 293.43 0 274.53 0 274.53-1.1 277.48-1.1 277.48-33.9 274.53-33.9ZM304.33-34.05L304.33-35 319.58-35 319.58-34.05 316.83-34.05 316.83-0.95 319.58-0.95 319.58 0 304.33 0 304.33-0.95 307.08-0.95 307.08-34.05 304.33-34.05ZM353.07-34.05L350.32-34.05 350.32 0 343.32 0 326.17-32.35 326.17-0.95 328.92-0.95 328.92 0 322.07 0 322.07-0.95 324.82-0.95 324.82-34.05 322.07-34.05 322.07-35 335.87-35 348.97-9.9 348.97-34.05 346.22-34.05 346.22-35 353.07-35 353.07-34.05ZM370.87-0.95L374.42-0.95 370.77-11.75 360.87-11.75 357.02-0.95 360.77-0.95 360.77 0 353.12 0 353.12-0.95 355.47-0.95 368.22-35.3 372.32-35.3 384.92-0.95 387.22-0.95 387.22 0 370.87 0 370.87-0.95ZM370.37-12.85L366.02-25.95 361.32-12.85 370.37-12.85ZM419.77-34.05L417.02-34.05 417.02 0 410.02 0 392.87-32.35 392.87-0.95 395.62-0.95 395.62 0 388.77 0 388.77-0.95 391.52-0.95 391.52-34.05 388.77-34.05 388.77-35 402.57-35 415.67-9.9 415.67-34.05 412.92-34.05 412.92-35 419.77-35 419.77-34.05ZM440.52-34.55L440.52-34.55Q432.77-34.55 432.77-19.6L432.77-19.6 432.77-15.65Q432.77-8.55 434.82-4.53 436.87-0.5 440.87-0.5L440.87-0.5Q446.37-0.5 450.97-11.2L450.97-11.2 451.87-11.2 451.52-0.05 450.97-0.05Q450.67-0.6 450.42-0.83 450.17-1.05 449.69-1.05 449.22-1.05 446.07-0.28 442.92 0.5 439.67 0.5L439.67 0.5Q431.52 0.5 427.04-3.9 422.57-8.3 422.57-17.13 422.57-25.95 427.24-30.75 431.92-35.55 439.82-35.55L439.82-35.55Q442.87-35.55 445.79-34.77 448.72-34 449.22-34 449.72-34 449.97-34.23 450.22-34.45 450.52-35L450.52-35 451.07-35 451.47-24.15 450.57-24.15Q448.32-29.2 445.94-31.88 443.57-34.55 440.52-34.55ZM456.06-33.9L456.06-35 482.06-35 482.56-25.1 481.66-25.1Q479.56-30.15 477.26-32.02 474.96-33.9 470.51-33.9L470.51-33.9 468.76-33.9 468.76-18.45 470.46-18.45Q472.81-18.45 474.41-20.23 476.01-22 476.66-25L476.66-25 477.41-25 477.41-10.2 476.56-10.2Q475.66-13.95 474.14-15.55 472.61-17.15 469.96-17.15L469.96-17.15 468.76-17.15 468.76-1.1 470.66-1.1Q475.26-1.1 478.49-3.85 481.71-6.6 482.91-10.9L482.91-10.9 483.91-10.9 483.51 0 456.06 0 456.06-1.1 459.01-1.1 459.01-33.9 456.06-33.9Z" opacity="1" transform="matrix(1,0,0,1,0,0)" fill="#fff300" class="undefined-text-1" data-fill-palette-color="secondary" id="text-1"></path></svg></g></svg></g></svg></g></svg></g><g><svg viewBox="0 0 227.86340932929656 227.86340932929656" height="227.86340932929656" width="227.86340932929656"><g><svg></svg></g><g id="icon-0"><svg viewBox="0 0 227.86340932929656 227.86340932929656" height="227.86340932929656" width="227.86340932929656"><g><path d="M0 113.932c0-62.923 51.009-113.932 113.932-113.932 62.923 0 113.932 51.009 113.931 113.932 0 62.923-51.009 113.932-113.931 113.931-62.923 0-113.932-51.009-113.932-113.931zM113.932 220.086c58.627 0 106.154-47.527 106.154-106.154 0-58.627-47.527-106.154-106.154-106.154-58.627 0-106.154 47.527-106.154 106.154 0 58.627 47.527 106.154 106.154 106.154z" data-fill-palette-color="accent" fill="#2f76db" stroke="transparent"></path></g><g transform="matrix(1,0,0,1,56.5915220451097,47.511454174293505)"><svg viewBox="0 0 114.68036523907716 132.84050098070955" height="132.84050098070955" width="114.68036523907716"><g><svg xmlns="http://www.w3.org/2000/svg" xmlns:xlink="http://www.w3.org/1999/xlink" version="1.1" x="0" y="0" viewBox="9.63800048828125 3.246999979019165 80.7239990234375 93.50699615478516" enable-background="new 0 0 100 100" xml:space="preserve" height="132.84050098070955" width="114.68036523907716" class="icon-c-0" data-fill-palette-color="accent" id="c-0"><g fill="#2f76db" data-fill-palette-color="accent"><g fill="#2f76db" data-fill-palette-color="accent"><polygon points="36.703,11.011 9.638,26.636 9.638,38.757 36.703,23.131 63.767,38.757 63.767,26.636   " fill="#2f76db" data-fill-palette-color="accent"></polygon></g><g fill="#2f76db" data-fill-palette-color="accent"><polygon points="63.298,89.092 36.233,73.467 36.233,61.348 63.298,76.973 90.362,61.348 90.362,73.467   " fill="#2f76db" data-fill-palette-color="accent"></polygon></g><g fill="#2f76db" data-fill-palette-color="accent"><polygon points="9.638,42.012 36.703,26.386 47.198,32.446 20.134,48.072 20.134,79.324 9.638,73.264   " fill="#2f76db" data-fill-palette-color="accent"></polygon></g><g fill="#2f76db" data-fill-palette-color="accent"><polygon points="77.083,18.872 50.018,3.247 39.522,9.307 66.586,24.932 66.586,56.184 77.083,50.124   " fill="#2f76db" data-fill-palette-color="accent"></polygon></g><g fill="#2f76db" data-fill-palette-color="accent"><polygon points="23.01,81.127 23.011,49.876 33.507,43.816 33.507,75.068 60.571,90.693 50.075,96.754   " fill="#2f76db" data-fill-palette-color="accent"></polygon></g><g fill="#2f76db" data-fill-palette-color="accent"><polygon points="90.362,58.092 90.362,26.84 79.866,20.78 79.866,52.031 52.802,67.658 63.298,73.719   " fill="#2f76db" data-fill-palette-color="accent"></polygon></g></g></svg></g></svg></g></svg></g></svg></g></svg></g><defs></defs></svg><rect width="395.52" height="135.70837612117734" fill="none" stroke="none" visibility="hidden"></rect></g></svg></g></svg>